<svg height="800px" width="800px" version="1.1" id="Capa_1" xmlns="http://www.w3.org/2000/svg" xmlns:xlink="http://www.w3.org/1999/xlink" viewBox="0 0 311.702 311.702" xml:space="preserve">
<g>
	<path style="fill:#ffffff;" d="M74.205,311.702h163.286c15.42,0,27.962-12.542,27.962-27.962V53.781   c0-15.42-12.542-27.962-27.962-27.962h-17.318c-1.229,0-2.279,0.174-3.427,0.256c0.152-1.012,0.267-2.034,0.267-3.084   C217.013,9.883,204.993,0,189.051,0h-66.4c-15.942,0-27.962,9.883-27.962,22.991c0,0.984,0.141,1.925,0.277,2.872   c-0.696-0.027-1.371-0.049-1.958-0.049H74.211c-15.42,0-27.962,12.542-27.962,27.962V283.74   C46.243,299.159,58.785,311.702,74.205,311.702z M139.534,30.279h32.634c12.015,0,21.756,5.782,21.756,12.918   c0,7.131-9.741,12.918-21.756,12.918h-32.634c-12.015,0-21.756-5.787-21.756-12.918C117.778,36.061,127.519,30.279,139.534,30.279z    M81.831,61.407h9.04c0.027,0.027,0.054,0.06,0.087,0.092c4.177,4.297,9.638,6.32,14.468,7.234v2.214   c0,15.414,12.548,27.962,27.962,27.962h46.412c15.42,0,27.962-12.548,27.962-27.962v-2.888c6.097-1.104,10.72-3.514,13.984-6.652   h8.126v214.707H81.831V61.407z"/>
</g>
</svg>